Coordinates
version=1
nRows=19
nColumns=63
inDegrees=yes

Units are S.I. units (second, meters, Newtons, ...)
If the header above contains a line with 'inDegrees', this indicates whether rotational values are in degrees (yes) or radians (no).

endheader
time	pelvis_tilt	pelvis_list	pelvis_rotation	pelvis_tx	pelvis_ty	pelvis_tz	hip_flexion_r	hip_adduction_r	hip_rotation_r	knee_angle_r	knee_angle_r_beta	ankle_angle_r	subtalar_angle_r	mtp_angle_r	hip_flexion_l	hip_adduction_l	hip_rotation_l	knee_angle_l	knee_angle_l_beta	ankle_angle_l	subtalar_angle_l	mtp_angle_l	L5_S1_Flex_Ext	L5_S1_Lat_Bending	L5_S1_axial_rotation	L4_L5_Flex_Ext	L4_L5_Lat_Bending	L4_L5_axial_rotation	L3_L4_Flex_Ext	L3_L4_Lat_Bending	L3_L4_axial_rotation	L2_L3_Flex_Ext	L2_L3_Lat_Bending	L2_L3_axial_rotation	L1_L2_Flex_Ext	L1_L2_Lat_Bending	L1_L2_axial_rotation	L1_T12_Flex_Ext	L1_T12_Lat_Bending	L1_T12_axial_rotation	Abs_r3	Abs_r2	Abs_r1	Abs_t1	Abs_t2	neck_flexion	neck_bending	neck_rotation	arm_flex_r	arm_add_r	arm_rot_r	elbow_flex_r	pro_sup_r	wrist_flex_r	wrist_dev_r	arm_flex_l	arm_add_l	arm_rot_l	elbow_flex_l	pro_sup_l	wrist_flex_l	wrist_dev_l
1.525424	-6.724004	-6.141172	81.132136	0.234899	0.362410	0.889682	-0.630203	-3.535482	2.212657	1.431116	0.024978	13.518478	-7.094283	0.000000	2.167196	2.296465	1.877430	3.974167	0.069362	13.964613	7.180493	0.000000	-0.214982	0.034415	-1.809698	-0.399243	0.045771	-1.922804	-0.353194	0.083676	-1.922804	-0.245703	0.083676	-1.583486	-0.199632	0.070178	-1.470379	-0.122841	0.053308	-1.357273	-1.535596	0.389305	-10.064996	0.000000	0.000000	23.432247	-0.706521	2.192272	-11.250166	-9.121674	79.304402	34.656109	1.339387	-11.650567	11.515679	-24.017618	-11.502589	26.664795	54.312700	41.279597	-20.688897	14.694876
1.542373	-6.805719	-6.109134	81.036149	0.235563	0.362521	0.890024	-0.612789	-3.592240	1.889883	1.490736	0.026018	13.681986	-6.424243	0.000000	2.144750	2.354558	2.011339	3.972548	0.069334	13.801199	6.840095	0.000000	-0.214426	0.018289	-1.818830	-0.398211	0.024324	-1.932507	-0.352281	0.044467	-1.932507	-0.245068	0.044467	-1.591476	-0.199116	0.037294	-1.477799	-0.122523	0.028329	-1.364123	-1.531625	0.206885	-10.115787	0.000000	0.000000	23.290370	-0.482291	2.187517	-10.885753	-9.300765	79.653724	35.176607	1.024367	-10.863199	13.308007	-23.989706	-11.804607	27.036072	54.123502	39.576956	-20.129323	14.797890
1.559322	-6.887899	-6.067012	80.933182	0.236189	0.362676	0.890429	-0.592117	-3.655175	1.525216	1.565064	0.027316	13.862240	-5.640753	0.000000	2.125182	2.413933	2.022135	3.983226	0.069520	13.706525	6.611975	0.000000	-0.215070	0.002273	-1.841358	-0.399406	0.003023	-1.956443	-0.353338	0.005527	-1.956443	-0.245803	0.005527	-1.611189	-0.199714	0.004635	-1.496104	-0.122891	0.003521	-1.381019	-1.536223	0.025714	-10.241083	0.000000	0.000000	23.070904	-0.216141	2.316194	-10.340329	-9.450137	80.704328	35.567062	0.157806	-9.724425	15.045598	-24.002802	-12.012138	27.311885	53.837997	37.973162	-19.450741	14.898363
1.576271	-6.955195	-6.014561	80.829965	0.236737	0.362845	0.890866	-0.575134	-3.708739	1.225835	1.651179	0.028819	14.023978	-4.928523	0.000000	2.101515	2.462048	1.964458	4.002663	0.069860	13.683989	6.451931	0.000000	-0.217934	-0.010613	-1.867840	-0.404724	-0.014115	-1.984580	-0.358043	-0.025804	-1.984580	-0.249076	-0.025804	-1.634360	-0.202373	-0.021641	-1.517620	-0.124527	-0.016439	-1.400880	-1.556677	-0.120052	-10.388365	0.000000	0.000000	22.782331	0.040687	2.564912	-9.711914	-9.511821	82.104640	35.765465	0.128788	-8.563839	16.475108	-24.017319	-12.162685	27.713891	53.410822	36.617010	-18.848345	14.498313
1.593220	-7.000560	-5.954745	80.725634	0.237147	0.363024	0.891352	-0.556258	-3.750142	0.968875	1.750673	0.030555	14.166625	-4.257229	0.000000	2.079671	2.494763	1.852000	4.037964	0.070476	13.725121	6.354519	0.000000	-0.224080	-0.018404	-1.896181	-0.416139	-0.024477	-2.014693	-0.368141	-0.044747	-2.014693	-0.256101	-0.044747	-1.659159	-0.208081	-0.037529	-1.540647	-0.128039	-0.028507	-1.422136	-1.600580	-0.208187	-10.545992	0.000000	0.000000	22.442008	0.279212	2.909138	-8.967680	-9.413250	84.319927	35.646736	1.035357	-7.433627	17.379947	-24.028723	-12.189070	28.001999	52.821192	36.028267	-18.049769	13.898883
1.610169	-7.012245	-5.885151	80.635353	0.237369	0.363199	0.891870	-0.542437	-3.768476	0.724682	1.863310	0.032521	14.292834	-3.629801	0.000000	2.054872	2.501166	1.631058	4.090564	0.071394	13.831979	6.407636	0.000000	-0.234840	-0.018089	-1.921173	-0.436120	-0.024058	-2.041246	-0.385818	-0.043982	-2.041246	-0.268398	-0.043982	-1.681026	-0.218072	-0.036887	-1.560953	-0.134187	-0.028020	-1.440880	-1.677435	-0.204627	-10.684988	0.000000	0.000000	22.072952	0.480664	3.357164	-8.159711	-9.125497	87.260249	35.123791	3.875440	-6.460471	17.549130	-23.967455	-12.178873	28.442498	52.132405	35.430518	-17.196326	13.172183
1.627119	-6.979199	-5.821453	80.540238	0.237388	0.363317	0.892417	-0.521011	-3.750888	0.543438	1.979021	0.034540	14.396436	-3.097997	0.000000	2.033455	2.473896	1.415425	4.148433	0.072404	13.979336	6.436187	0.000000	-0.249417	-0.007352	-1.935165	-0.463192	-0.009778	-2.056113	-0.409767	-0.017876	-2.056113	-0.285058	-0.017876	-1.693269	-0.231608	-0.014992	-1.572321	-0.142517	-0.011388	-1.451374	-1.781558	-0.083169	-10.762806	0.000000	0.000000	21.714693	0.601117	3.839807	-7.356788	-8.696370	90.786774	34.272272	7.301155	-5.492752	17.122654	-23.872612	-12.038814	28.609731	51.409397	35.747387	-16.054422	12.663365
1.644068	-6.899140	-5.766627	80.451079	0.237192	0.363372	0.892965	-0.497757	-3.694034	0.419669	2.087467	0.036433	14.468696	-2.678763	0.000000	2.020523	2.407492	1.163610	4.220386	0.073660	14.176518	6.516652	0.000000	-0.267584	0.014948	-1.939198	-0.496931	0.019881	-2.060398	-0.439614	0.036345	-2.060398	-0.305822	0.036345	-1.696798	-0.248479	0.030483	-1.575598	-0.152898	0.023155	-1.454399	-1.911329	0.169099	-10.785238	0.000000	0.000000	21.387263	0.617428	4.363815	-6.596764	-8.187261	94.708444	33.183015	10.553882	-4.495539	16.257201	-23.727966	-11.804455	28.578631	50.699861	37.040994	-14.779235	12.260695
1.661017	-6.776739	-5.732577	80.364838	0.236786	0.363334	0.893480	-0.466678	-3.600161	0.336456	2.178820	0.038028	14.516768	-2.353318	0.000000	2.018408	2.309724	0.970855	4.287443	0.074830	14.392695	6.504067	0.000000	-0.287124	0.048228	-1.931958	-0.533218	0.064143	-2.052705	-0.471716	0.117261	-2.052705	-0.328154	0.117261	-1.690463	-0.266623	0.098346	-1.569716	-0.164063	0.074704	-1.448969	-2.050898	0.545560	-10.744971	0.000000	0.000000	21.098727	0.536879	4.891300	-5.957686	-7.670931	98.554921	31.971509	13.337158	-3.537201	15.127934	-23.567770	-11.452177	28.189253	50.080041	39.496887	-13.307341	12.152942
1.677966	-6.628338	-5.711403	80.271421	0.236258	0.363210	0.893951	-0.439389	-3.484919	0.345953	2.245982	0.039200	14.526721	-2.171476	0.000000	2.024104	2.190276	0.747815	4.358667	0.076073	14.641251	6.531288	0.000000	-0.308364	0.089234	-1.919642	-0.572663	0.118682	-2.039620	-0.506612	0.216965	-2.039620	-0.352430	0.216965	-1.679687	-0.286347	0.181967	-1.559709	-0.176199	0.138224	-1.439732	-2.202615	1.009438	-10.676475	0.000000	0.000000	20.821432	0.349337	5.422587	-5.438203	-7.159258	102.345868	30.682790	15.608283	-2.613043	13.695894	-23.428611	-11.013666	27.474724	49.581552	43.000332	-11.725143	12.102511
1.694915	-6.451564	-5.711736	80.184737	0.235607	0.363009	0.894373	-0.411253	-3.344250	0.308972	2.287700	0.039928	14.541685	-1.957195	0.000000	2.040161	2.050997	0.693775	4.418306	0.077114	14.883832	6.363211	0.000000	-0.329812	0.138061	-1.904388	-0.612494	0.183621	-2.023412	-0.541849	0.335682	-2.023412	-0.376942	0.335682	-1.666339	-0.306264	0.281534	-1.547315	-0.188455	0.213857	-1.428291	-2.355816	1.561774	-10.591635	0.000000	0.000000	20.544551	0.097300	5.986582	-5.064311	-6.701823	105.778610	29.383072	17.303323	-1.773445	12.138434	-23.273732	-10.553855	26.650774	49.235422	46.658593	-10.158379	12.086373
1.711864	-6.252024	-5.740166	80.100344	0.234837	0.362723	0.894742	-0.378401	-3.181696	0.289240	2.297107	0.040092	14.531836	-1.810964	0.000000	2.075924	1.892980	0.713097	4.470175	0.078019	15.137597	6.142869	0.000000	-0.350081	0.193509	-1.886156	-0.650135	0.257368	-2.004041	-0.575147	0.470499	-2.004041	-0.400107	0.470499	-1.650387	-0.325085	0.394604	-1.532502	-0.200036	0.299746	-1.414617	-2.500590	2.189017	-10.490235	0.000000	0.000000	20.258130	-0.187032	6.572667	-4.876568	-6.336335	108.592341	28.133670	18.421553	-1.044370	10.503397	-23.124584	-10.057204	25.693285	49.018784	50.626014	-8.560993	12.060769
1.728814	-6.028717	-5.790002	80.008806	0.233963	0.362364	0.895064	-0.346448	-2.997666	0.290285	2.273436	0.039679	14.500534	-1.720700	0.000000	2.118951	1.720194	0.886481	4.504000	0.078610	15.368777	5.747540	0.000000	-0.369893	0.254736	-1.861867	-0.686928	0.338798	-1.978234	-0.607697	0.619364	-1.978234	-0.422751	0.619364	-1.629134	-0.343483	0.519457	-1.512767	-0.211357	0.394586	-1.396400	-2.642108	2.881621	-10.355146	0.000000	0.000000	19.950437	-0.493867	7.148071	-4.874421	-6.074246	110.721296	26.960904	18.958440	-0.401713	8.849563	-22.964021	-9.547422	24.718904	48.933407	54.742798	-7.107481	12.028686
1.745763	-5.769310	-5.858108	79.919576	0.232963	0.361952	0.895333	-0.321654	-2.782540	0.199770	2.215899	0.038675	14.488814	-1.519606	0.000000	2.167158	1.520664	1.214716	4.527349	0.079017	15.575149	5.181513	0.000000	-0.389491	0.322526	-1.830376	-0.723323	0.428959	-1.944775	-0.639894	0.784189	-1.944775	-0.445149	0.784189	-1.601579	-0.361681	0.657695	-1.487181	-0.222555	0.499592	-1.372782	-2.782093	3.648476	-10.180003	0.000000	0.000000	19.614974	-0.828460	7.681776	-5.066342	-5.951302	111.980164	25.934321	18.889684	0.203765	7.241357	-22.797801	-8.995024	23.668208	48.924375	59.061570	-5.795422	12.115130
1.762712	-5.488574	-5.938183	79.823078	0.231920	0.361506	0.895558	-0.306077	-2.543646	0.241220	2.121159	0.037021	14.434250	-1.518127	0.000000	2.204995	1.310180	1.786758	4.519143	0.078874	15.710793	4.305525	0.000000	-0.408152	0.393201	-1.792370	-0.757979	0.522957	-1.904393	-0.670553	0.956028	-1.904393	-0.466477	0.956028	-1.568324	-0.379010	0.801815	-1.456301	-0.233218	0.609068	-1.344278	-2.915388	4.447966	-9.968625	0.000000	0.000000	19.252117	-1.145140	8.151344	-5.371214	-5.995937	112.253740	25.156334	18.223764	0.852782	5.695438	-22.626739	-8.440000	22.636286	49.013487	63.137214	-4.850011	12.246123
1.779661	-5.205848	-6.018152	79.726220	0.230921	0.361084	0.895745	-0.306182	-2.299653	0.292556	1.995599	0.034830	14.379500	-1.534618	0.000000	2.230976	1.099463	2.453249	4.496900	0.078486	15.796086	3.322965	0.000000	-0.425584	0.462686	-1.750741	-0.790351	0.615373	-1.860162	-0.699191	1.124976	-1.860162	-0.486400	1.124976	-1.531898	-0.395197	0.943510	-1.422477	-0.243179	0.716701	-1.313056	-3.039902	5.234001	-9.737095	0.000000	0.000000	18.854305	-1.431603	8.553359	-5.625516	-6.201259	110.527736	24.902051	17.367777	1.519788	4.021574	-22.470112	-7.902524	21.594252	49.190156	66.716779	-4.188875	12.409204
1.796610	-4.946895	-6.102807	79.632160	0.230071	0.360712	0.895894	-0.310812	-2.068276	0.358012	1.844203	0.032187	14.319082	-1.581649	0.000000	2.259118	0.902765	3.092753	4.469757	0.078012	15.845244	2.392355	0.000000	-0.439667	0.526117	-1.699198	-0.816506	0.699736	-1.805398	-0.722330	1.279201	-1.805398	-0.502496	1.279201	-1.486798	-0.408275	1.072858	-1.380598	-0.251226	0.814955	-1.274398	-3.140500	5.951541	-9.450429	0.000000	0.000000	18.456609	-1.660890	8.835449	-6.001867	-6.205271	110.423114	24.408741	16.046345	1.745196	2.287259	-22.336435	-7.431303	20.556465	49.508682	69.816258	-3.839114	12.518544
1.813559	-4.719031	-6.197542	79.547339	0.229390	0.360395	0.895997	-0.311830	-1.852430	0.492488	1.673171	0.029202	14.231243	-1.743617	0.000000	2.297882	0.724079	3.669186	4.440686	0.077505	15.872164	1.545528	0.000000	-0.448213	0.581936	-1.645379	-0.832377	0.773975	-1.748215	-0.736370	1.414920	-1.748215	-0.512263	1.414920	-1.439706	-0.416211	1.186684	-1.336870	-0.256109	0.901419	-1.234034	-3.201544	6.582978	-9.151103	0.000000	0.000000	18.075594	-1.800095	9.038234	-6.495551	-6.020579	112.262722	23.662440	14.267680	1.426335	0.728821	-22.291646	-6.988996	19.355162	49.997944	72.592358	-3.708736	12.591221
1.830508	-4.508518	-6.298557	79.465224	0.228810	0.360150	0.896042	-0.311767	-1.644254	0.692324	1.489461	0.025996	14.118539	-1.986382	0.000000	2.344025	0.553030	4.136833	4.413687	0.077033	15.900251	0.832298	0.000000	-0.451842	0.633553	-1.589208	-0.839115	0.842625	-1.688533	-0.742331	1.540420	-1.688533	-0.516410	1.540420	-1.390557	-0.419580	1.291941	-1.291231	-0.258182	0.981373	-1.191906	-3.227460	7.166875	-8.838698	0.000000	0.000000	17.717933	-1.903135	9.209229	-7.099232	-5.639585	116.551644	22.663804	11.993899	0.527177	-0.576079	-22.290794	-6.615770	18.247084	50.589395	74.878000	-3.835012	12.317766
